<svg xmlns="http://www.w3.org/2000/svg" width="219.422" height="219.422" viewBox="0 0 219.422 219.422"><path d="M0,0H219.422V219.422H0Z" fill="none"/><path d="M134.025,102.569a18.2,18.2,0,0,0,16-9.417l32.73-59.335A9.107,9.107,0,0,0,174.8,20.285H39.49L30.9,2H1V20.285H19.285L52.2,89.678,39.856,111.985a18.318,18.318,0,0,0,16,27.154H165.567V120.854H55.856l10.057-18.285Zm-85.849-64H159.258L134.025,84.283H69.844Zm7.68,109.711a18.285,18.285,0,1,0,18.285,18.285A18.261,18.261,0,0,0,55.856,148.282Zm91.426,0a18.285,18.285,0,1,0,18.285,18.285A18.261,18.261,0,0,0,147.282,148.282Z" transform="translate(8.143 16.285)" fill="#d3ba51"/></svg>