<svg xmlns="http://www.w3.org/2000/svg" width="212.786" height="212.786" viewBox="0 0 212.786 212.786"><path d="M0,0H212.786V212.786H0Z" fill="none"/><path d="M75.145,99.527A11.083,11.083,0,1,1,64.063,88.444,11.087,11.087,0,0,1,75.145,99.527Zm42.114-11.083a11.083,11.083,0,1,0,11.083,11.083A11.087,11.087,0,0,0,117.259,88.444Zm62.063,2.217A88.661,88.661,0,1,1,90.661,2,88.693,88.693,0,0,1,179.322,90.661ZM78.78,20.8a70.836,70.836,0,0,0,60.644,34.4A74,74,0,0,0,151.3,54.133a70.836,70.836,0,0,0-60.644-34.4A74,74,0,0,0,78.78,20.8ZM23.456,68.23a71.336,71.336,0,0,0,32.45-39.365A71.336,71.336,0,0,0,23.456,68.23ZM161.589,90.661a69.862,69.862,0,0,0-2.926-19.86,91.37,91.37,0,0,1-19.239,2.128,88.657,88.657,0,0,1-68.8-32.716A88.8,88.8,0,0,1,19.732,89.42a5.792,5.792,0,0,1,0,1.241,70.929,70.929,0,0,0,141.857,0Z" transform="translate(15.732 15.732)" fill="#d3ba51"/></svg>