<svg xmlns="http://www.w3.org/2000/svg" xmlns:xlink="http://www.w3.org/1999/xlink" width="240" height="194" viewBox="0 0 240 194"><defs><clipPath id="a"><rect width="240" height="194" transform="translate(841 1008)" fill="none"/></clipPath></defs><g transform="translate(-841 -1008)" clip-path="url(#a)"><g transform="translate(851 994.854)"><path d="M0,0H219.146V219.146H0Z" fill="none"/><path d="M97.413,58.331h-13.7v54.786l43.373,26.024,6.848-11.231L97.413,106.27ZM141.58,1.81l42.067,35.109L171.959,50.935,129.865,15.844Zm-97.465,0L55.821,15.835l-42.076,35.1L2.057,36.91Zm48.733,20a82.18,82.18,0,1,0,82.18,82.18A82.186,82.186,0,0,0,92.847,21.807Zm0,146.1a63.918,63.918,0,1,1,63.918-63.918A63.988,63.988,0,0,1,92.847,167.9Z" transform="translate(16.726 14.717)" fill="#d3ba51"/></g></g></svg>