<svg xmlns="http://www.w3.org/2000/svg" width="230.229" height="230.229" viewBox="0 0 230.229 230.229"><path d="M0,0H230.229V230.229H0Z" fill="none"/><path d="M102.235,61.19H87.846v57.557l45.566,27.34,7.195-11.8-38.371-22.735Zm46.4-59.38,44.194,36.885L180.552,53.42,136.328,16.554Zm-102.394,0,12.3,14.735L14.336,53.42,2.057,38.685Zm51.2,21.008a86.336,86.336,0,1,0,86.336,86.336A86.343,86.343,0,0,0,97.439,22.818Zm0,153.486a67.15,67.15,0,1,1,67.15-67.15A67.224,67.224,0,0,1,97.439,176.3Z" transform="translate(17.676 15.553)" fill="#d3ba51"/></svg>