<svg xmlns="http://www.w3.org/2000/svg" width="260.428" height="260.428" viewBox="0 0 260.428 260.428"><path d="M0,0H260.428V260.428H0Z" fill="none"/><path d="M110.512,4H34.554A32.51,32.51,0,0,0,2,36.554v86.809a32.51,32.51,0,0,0,32.554,32.553L23.7,166.768v10.851H34.554l21.7-21.7h21.7V101.661H23.7V25.7h97.661V47.4h21.7V36.554A32.51,32.51,0,0,0,110.512,4ZM34.554,112.512A10.851,10.851,0,1,1,23.7,123.363,10.883,10.883,0,0,1,34.554,112.512ZM203.506,65.418a10.882,10.882,0,0,0-10.526-7.162h-78.02a11.024,11.024,0,0,0-10.634,7.162l-15.409,44.6v59.79a7.788,7.788,0,0,0,7.487,7.813h6.728c4.123,0,7.379-4.123,7.379-8.247V155.916h86.809v13.455c0,4.123,3.364,8.247,7.487,8.247h6.619a7.788,7.788,0,0,0,7.487-7.813l.109-14.866V110.016l-15.517-44.6Zm-88.546,3.689h78.02l11.177,32.553H103.784l11.177-32.553Zm-4.449,65.107a10.851,10.851,0,1,1,10.851-10.851A10.883,10.883,0,0,1,110.512,134.214Zm86.809,0a10.851,10.851,0,1,1,10.851-10.851A10.883,10.883,0,0,1,197.321,134.214Z" transform="translate(19.702 39.405)" fill="#d3ba51"/></svg>