<svg xmlns="http://www.w3.org/2000/svg" xmlns:xlink="http://www.w3.org/1999/xlink" width="240" height="194" viewBox="0 0 240 194"><defs><clipPath id="a"><rect width="240" height="194" transform="translate(841 552)" fill="none"/></clipPath></defs><g transform="translate(-841 -552)" clip-path="url(#a)"><g transform="translate(850 538)"><path d="M0,0H221V221H0Z" fill="none"/><path d="M211.792,84.967l-46.042-.092a9.235,9.235,0,0,0-9.208,9.208v82.875a9.235,9.235,0,0,0,9.208,9.208h46.042A9.235,9.235,0,0,0,221,176.958V94.083A9.157,9.157,0,0,0,211.792,84.967Zm0,82.783H165.75V103.292h46.042ZM184.167,2H18.417A18.353,18.353,0,0,0,0,20.417v110.5a18.412,18.412,0,0,0,18.417,18.417H82.875V167.75H64.458v18.417h73.667V167.75H119.708V149.333h18.417V130.917H18.417V20.417h165.75V66.458h18.417V20.417A18.412,18.412,0,0,0,184.167,2ZM110.224,66.458l-8.932-27.625L92.36,66.458h-27.9L87.2,82.665l-8.656,26.8,22.745-16.575,22.745,16.575-8.656-26.8,22.745-16.207Z" transform="translate(0 16.417)" fill="#d3ba51"/></g></g></svg>