<svg xmlns="http://www.w3.org/2000/svg" width="23.035" height="23.035" viewBox="0 0 23.035 23.035"><path d="M0,0H23.035V23.035H0ZM0,0H23.035V23.035H0Z" fill="none"/><path d="M8.678,20.2h8.638a1.907,1.907,0,0,0,1.766-1.171l2.9-6.767a1.9,1.9,0,0,0,.134-.7V9.638a1.925,1.925,0,0,0-1.92-1.92H14.14l.912-4.386.029-.307a1.445,1.445,0,0,0-.422-1.017L13.64,1,7.315,7.325a1.908,1.908,0,0,0-.557,1.353v9.6A1.925,1.925,0,0,0,8.678,20.2Zm0-11.517,4.165-4.165L11.558,9.638H20.2v1.92l-2.879,6.719H8.678ZM1,8.678H4.839V20.2H1Z" transform="translate(-0.04 -0.04)" fill="#8e8b8b"/></svg>