<svg xmlns="http://www.w3.org/2000/svg" width="23.035" height="23.035" viewBox="0 0 23.035 23.035"><path d="M0,0H23.035V23.035H0ZM0,0H23.035V23.035H0Z" fill="none"/><path d="M14.437,3H5.8A1.907,1.907,0,0,0,4.033,4.171l-2.9,6.767a1.9,1.9,0,0,0-.134.7v1.92a1.925,1.925,0,0,0,1.92,1.92H8.976l-.912,4.386-.029.307a1.445,1.445,0,0,0,.422,1.017L9.475,22.2,15.8,15.871a1.908,1.908,0,0,0,.557-1.353V4.92A1.925,1.925,0,0,0,14.437,3Zm0,11.517-4.165,4.165,1.286-5.125H2.92v-1.92L5.8,4.92h8.638ZM18.276,3h3.839V14.517H18.276Z" transform="translate(-0.04 -0.121)" fill="#8e8b8b"/></svg>